# xmcd
#
# Track frame offsets: 
#        183
#        60993
#        94495
#        117595
#        143120
#
# Disc length: 2651 seconds
#
# Revision: 55
# Processed by: cddbd v1.5.2PL0 Copyright (c) Steve Scherf et al.
# Submitted via: ExactAudioCopy v1.0b3
#
DISCID=440a5905
DTITLE=Pink Floyd - Wish You Were Here
DYEAR=1975
DGENRE=Rock
TTITLE0=Shine On You Crazy Diamond (Part One)
TTITLE1=Welcome To The Machine
TTITLE2=Have A Cigar
TTITLE3=Wish You Were Here
TTITLE4=Shine On You Crazy Diamond (Part Two)
EXTD=Pink Floyd
EXTT0=Gilmour, Waters, Wright
EXTT1=Roger Waters
EXTT2=Roger Waters
EXTT3=Waters, Gilmour
EXTT4=Waters, Wright, Gilmour
PLAYORDER=
